<?xml version="1.0" encoding="utf-8"?>
<!-- Generator: Adobe Illustrator 23.0.4, SVG Export Plug-In . SVG Version: 6.00 Build 0)  -->
<svg version="1.1" id="Layer_1" xmlns="http://www.w3.org/2000/svg" xmlns:xlink="http://www.w3.org/1999/xlink" x="0px" y="0px"
	 viewBox="0 0 180 60" style="enable-background:new 0 0 180 60;" xml:space="preserve">
<style type="text/css">
	.st0{fill:#5C9314;}
</style>
<g id="Слой_1">
	<path class="st0" d="M2,27.2c0-1.6,0.3-3.1,0.9-4.5c0.6-1.4,1.4-2.6,2.5-3.7c1-1.1,2.3-1.9,3.7-2.5c1.4-0.6,2.9-0.9,4.5-0.9
		c1.6,0,3.1,0.3,4.5,0.9c1.4,0.6,2.6,1.4,3.7,2.5c1.1,1.1,1.9,2.3,2.5,3.7c0.6,1.4,0.9,2.9,0.9,4.5c0,1.6-0.3,3.1-0.9,4.5
		c-0.6,1.4-1.4,2.6-2.5,3.6c-1.1,1-2.3,1.9-3.7,2.4c-1.4,0.6-2.9,0.9-4.5,0.9c-1.6,0-3.1-0.3-4.5-0.9c-1.4-0.6-2.6-1.4-3.7-2.4
		c-1-1-1.9-2.3-2.5-3.6C2.3,30.3,2,28.8,2,27.2z M5.5,27.2c0,1.1,0.2,2.1,0.6,3.1c0.4,0.9,1,1.8,1.7,2.5c0.7,0.7,1.6,1.3,2.5,1.7
		c1,0.4,2.1,0.6,3.2,0.6c1.1,0,2.1-0.2,3.1-0.6c1-0.4,1.8-1,2.6-1.7c0.7-0.7,1.3-1.6,1.7-2.5c0.4-1,0.6-2,0.6-3.1
		c0-1.1-0.2-2.1-0.6-3.1c-0.4-1-1-1.8-1.7-2.6c-0.7-0.7-1.6-1.3-2.6-1.7c-1-0.4-2.1-0.6-3.1-0.6c-1.1,0-2.2,0.2-3.2,0.6
		c-1.9,0.8-3.5,2.4-4.3,4.3C5.7,25,5.5,26.1,5.5,27.2z M30.9,36.6c0,0.5-0.2,1-0.5,1.3c-0.3,0.3-0.7,0.5-1.3,0.5
		c-0.5,0-0.9-0.2-1.2-0.5c-0.3-0.3-0.5-0.7-0.5-1.3V16.4c0-0.5,0.2-0.9,0.5-1.3c0.3-0.3,0.7-0.5,1.2-0.5c0.5,0,1,0.2,1.3,0.5
		c0.3,0.3,0.5,0.7,0.5,1.3V36.6z M42.1,20.9c1.2,0,2.3,0.2,3.4,0.7c1,0.4,2,1.1,2.8,1.9c0.8,0.8,1.5,1.7,1.9,2.7
		c0.5,1,0.7,2.1,0.7,3.3c0,0.6-0.2,1-0.5,1.3c-0.3,0.3-0.7,0.5-1.3,0.5H37c0.1,0.6,0.3,1.1,0.6,1.6c0.3,0.5,0.7,0.9,1.2,1.3
		c0.5,0.4,1,0.6,1.6,0.8c0.6,0.2,1.1,0.3,1.7,0.3c0.7,0,1.4-0.1,2.1-0.4c0.6-0.3,1.2-0.6,1.7-1.1c0.2-0.2,0.4-0.3,0.7-0.4
		s0.5-0.2,0.7-0.2c0.5,0,0.8,0.2,1.2,0.5c0.3,0.3,0.5,0.7,0.5,1.2c0,0.2,0,0.5-0.1,0.7c-0.1,0.2-0.2,0.4-0.4,0.6
		c-0.8,0.9-1.7,1.5-2.8,1.9c-1.1,0.4-2.2,0.6-3.5,0.6c-1.2,0-2.4-0.2-3.5-0.7c-1.1-0.4-2-1.1-2.8-1.9c-0.8-0.8-1.5-1.8-1.9-2.8
		c-0.5-1.1-0.7-2.3-0.7-3.5c0-1.2,0.2-2.4,0.7-3.5c0.4-1.1,1.1-2,1.9-2.8c0.8-0.8,1.8-1.5,2.8-1.9C39.7,21.2,40.9,20.9,42.1,20.9
		L42.1,20.9z M42.1,24.4c-0.6,0-1.2,0.1-1.7,0.3c-0.6,0.2-1.1,0.5-1.5,0.8c-0.5,0.4-0.8,0.8-1.2,1.3c-0.3,0.5-0.5,1-0.7,1.6h10.1
		c-0.1-0.6-0.3-1.1-0.6-1.6c-0.7-1-1.6-1.7-2.7-2.1C43.3,24.5,42.7,24.4,42.1,24.4L42.1,24.4z M61.6,20.9c1.2,0,2.4,0.2,3.5,0.7
		c1.1,0.5,2,1.1,2.8,1.9c0.8,0.8,1.5,1.8,1.9,2.8c0.5,1.1,0.7,2.3,0.7,3.5c0,1.2-0.2,2.4-0.7,3.5c-0.4,1.1-1.1,2-1.9,2.8
		c-0.8,0.8-1.8,1.4-2.8,1.9c-1.1,0.5-2.3,0.7-3.5,0.7c-1.2,0-2.4-0.2-3.5-0.7c-1.1-0.4-2-1.1-2.8-1.9c-0.8-0.8-1.5-1.8-1.9-2.8
		c-0.5-1.1-0.7-2.3-0.7-3.5c0-1.2,0.2-2.4,0.7-3.5c0.4-1.1,1.1-2,1.9-2.8c0.8-0.8,1.8-1.5,2.8-1.9C59.2,21.2,60.4,20.9,61.6,20.9z
		 M61.6,24.4c-0.7,0-1.5,0.1-2.1,0.4c-0.6,0.3-1.2,0.7-1.7,1.2c-0.5,0.5-0.9,1.1-1.1,1.7c-0.3,0.7-0.4,1.4-0.4,2.1
		c0,0.7,0.1,1.4,0.4,2.1c0.3,0.6,0.7,1.2,1.1,1.7c0.5,0.5,1.1,0.9,1.7,1.1c0.7,0.3,1.4,0.4,2.1,0.4c0.7,0,1.4-0.1,2.1-0.4
		c0.6-0.3,1.2-0.7,1.7-1.1c1-1,1.6-2.4,1.6-3.8c0-0.7-0.1-1.5-0.4-2.1c-0.5-1.3-1.6-2.3-2.9-2.9C63,24.5,62.3,24.4,61.6,24.4z
		 M78.2,15.7c0.7,0,1.5,0.2,2.4,0.5c0.8,0.3,1.5,0.8,2,1.3c0.3,0.3,0.5,0.5,0.6,0.7s0.1,0.5,0.1,0.7c0,0.5-0.1,0.9-0.4,1.3
		c-0.3,0.3-0.7,0.5-1.1,0.5c-0.3,0-0.6-0.1-0.8-0.2s-0.4-0.3-0.7-0.5c-0.4-0.3-0.7-0.6-1.1-0.7c-0.3-0.1-0.7-0.2-1.2-0.2
		c-0.6,0-1.2,0.2-1.6,0.7s-0.7,1.1-0.7,1.9c0,0.6,0.2,1.1,0.5,1.4c0.3,0.4,0.8,0.7,1.5,1c0.7,0.3,1.4,0.6,2.2,0.9
		c0.8,0.3,1.4,0.6,1.9,1c0.8,0.6,1.4,1.4,1.9,2.3c0.4,0.9,0.7,1.9,0.7,2.9c0,0.9-0.2,1.8-0.5,2.6c-0.3,0.8-0.8,1.6-1.4,2.2
		c-0.6,0.6-1.4,1.2-2.3,1.5c-0.9,0.4-1.9,0.6-3.1,0.6c-1,0-2-0.2-2.8-0.6c-0.8-0.4-1.5-0.9-2-1.4c-0.2-0.2-0.4-0.5-0.5-0.7
		c-0.1-0.2-0.2-0.5-0.2-0.7c0-0.5,0.2-0.9,0.5-1.2c0.3-0.3,0.7-0.5,1.2-0.5c0.2,0,0.4,0,0.6,0.1c0.2,0.1,0.4,0.2,0.7,0.5
		c0.4,0.4,0.8,0.7,1.3,0.9c0.4,0.2,1,0.3,1.6,0.3c1.1,0,1.9-0.3,2.5-1c0.6-0.7,0.9-1.5,0.9-2.5c0-0.6-0.1-1.2-0.4-1.6
		c-0.3-0.4-0.7-0.8-1.4-1.2c-0.7-0.3-1.3-0.6-2-0.9c-0.8-0.3-1.5-0.6-2.2-1c-0.7-0.4-1.3-1.1-1.8-1.9c-0.5-0.8-0.8-1.8-0.8-3
		c0-0.9,0.2-1.7,0.5-2.4c0.3-0.7,0.7-1.4,1.3-1.9c0.6-0.6,1.2-1,1.9-1.3C76.5,15.8,77.3,15.7,78.2,15.7L78.2,15.7z M94.5,20.9
		c1.3,0,2.5,0.2,3.6,0.7c1.1,0.5,2.1,1.2,2.8,2.1c0.1,0.2,0.2,0.4,0.3,0.6c0.1,0.2,0.1,0.4,0.1,0.5c0,0.5-0.2,0.9-0.5,1.3
		c-0.4,0.4-0.8,0.5-1.2,0.5c-0.4,0-0.8-0.2-1.1-0.5c-0.5-0.5-1.1-0.9-1.8-1.3c-0.7-0.3-1.4-0.5-2.1-0.5c-1.4,0-2.8,0.6-3.8,1.6
		c-0.5,0.5-0.9,1.1-1.1,1.7c-0.3,0.7-0.4,1.4-0.4,2.1c0,0.7,0.1,1.4,0.4,2.1c0.3,0.6,0.7,1.2,1.1,1.7c0.5,0.5,1.1,0.9,1.7,1.1
		c0.7,0.3,1.4,0.4,2.1,0.4c0.7,0,1.4-0.1,2.1-0.4c0.7-0.3,1.2-0.7,1.7-1.2c0.2-0.2,0.4-0.3,0.6-0.4c0.2-0.1,0.4-0.1,0.6-0.1
		c0.5,0,0.9,0.2,1.3,0.5s0.6,0.8,0.6,1.2c0,0.4-0.2,0.8-0.5,1.2c-0.8,0.8-1.8,1.5-2.9,1.9c-1.1,0.5-2.3,0.7-3.5,0.7
		c-1.2,0-2.4-0.2-3.5-0.7c-1.1-0.4-2-1.1-2.8-1.9c-0.8-0.8-1.5-1.8-1.9-2.8c-0.5-1.1-0.7-2.3-0.7-3.5c0-1.2,0.2-2.4,0.7-3.5
		c0.4-1.1,1.1-2,1.9-2.8c0.8-0.8,1.8-1.5,2.8-1.9C92.2,21.2,93.3,20.9,94.5,20.9L94.5,20.9z M112.1,20.9c1.2,0,2.4,0.2,3.5,0.7
		c1.1,0.5,2,1.1,2.8,1.9c0.8,0.8,1.5,1.8,1.9,2.8c0.5,1.1,0.7,2.3,0.7,3.5c0,1.2-0.2,2.4-0.7,3.5c-0.4,1.1-1.1,2-1.9,2.8
		c-0.8,0.8-1.8,1.4-2.8,1.9c-1.1,0.5-2.2,0.7-3.5,0.7s-2.4-0.2-3.5-0.7c-1.1-0.4-2-1.1-2.8-1.9c-0.8-0.8-1.5-1.8-1.9-2.8
		c-0.5-1.1-0.7-2.3-0.7-3.5c0-1.2,0.2-2.4,0.7-3.5c0.4-1.1,1.1-2,1.9-2.8c0.8-0.8,1.8-1.5,2.8-1.9C109.7,21.2,110.9,20.9,112.1,20.9
		z M112.1,24.4c-0.7,0-1.5,0.1-2.1,0.4c-0.6,0.3-1.2,0.7-1.7,1.2c-0.5,0.5-0.9,1.1-1.1,1.7c-0.3,0.7-0.4,1.4-0.4,2.1
		c0,0.7,0.1,1.4,0.4,2.1c0.3,0.6,0.7,1.2,1.1,1.7c0.5,0.5,1.1,0.9,1.7,1.1c0.7,0.3,1.4,0.4,2.1,0.4c0.7,0,1.4-0.1,2.1-0.4
		c0.6-0.3,1.2-0.7,1.7-1.1c1-1,1.6-2.4,1.6-3.8c0-0.7-0.1-1.5-0.4-2.1c-0.5-1.3-1.6-2.3-2.9-2.9C113.5,24.5,112.8,24.4,112.1,24.4z
		 M126.8,44.2c0,0.5-0.2,0.9-0.5,1.3s-0.7,0.5-1.3,0.5c-0.5,0-0.9-0.2-1.3-0.5s-0.5-0.7-0.5-1.3V22.8c0-0.5,0.1-0.8,0.4-1.1
		c0.3-0.3,0.7-0.4,1-0.4c0.6,0,1.1,0.2,1.3,0.5c0.2,0.3,0.4,0.8,0.6,1.5c0.3-0.3,0.6-0.6,1-0.9s0.8-0.5,1.3-0.8
		c0.5-0.2,0.9-0.4,1.4-0.5c0.5-0.1,1.1-0.2,1.6-0.2c1.1,0,2.3,0.2,3.3,0.7c1.1,0.5,2,1.1,2.9,1.9c0.8,0.8,1.5,1.7,2,2.8
		s0.7,2.2,0.7,3.5s-0.2,2.4-0.7,3.5s-1.2,2-2,2.8c-0.8,0.8-1.8,1.5-2.9,1.9c-1.1,0.5-2.2,0.7-3.3,0.7c-1.1,0-2.2-0.2-3-0.6
		c-0.9-0.4-1.6-0.9-2.1-1.6C126.8,36.5,126.8,44.2,126.8,44.2z M131.9,35.2c0.7,0,1.4-0.1,2.1-0.4c0.6-0.3,1.2-0.7,1.7-1.2
		c0.5-0.5,0.9-1.1,1.1-1.7c0.3-0.7,0.4-1.4,0.4-2.1c0-0.7-0.1-1.4-0.4-2.1c-0.3-0.6-0.7-1.2-1.1-1.7c-0.5-0.5-1.1-0.9-1.7-1.2
		c-0.7-0.3-1.4-0.4-2.1-0.4c-0.7,0-1.4,0.1-2,0.4c-0.6,0.3-1.2,0.7-1.6,1.2c-0.5,0.5-0.8,1.1-1.1,1.7c-0.3,0.7-0.4,1.4-0.4,2.1
		c0,0.7,0.1,1.4,0.4,2.1c0.3,0.6,0.6,1.2,1.1,1.7c0.5,0.5,1,0.9,1.6,1.2C130.5,35.1,131.2,35.2,131.9,35.2z M151.4,20.9
		c1.2,0,2.4,0.2,3.4,0.7c1,0.4,2,1.1,2.8,1.9c0.8,0.8,1.5,1.7,1.9,2.7c0.5,1,0.7,2.1,0.7,3.3c0,0.6-0.2,1-0.5,1.3s-0.7,0.5-1.3,0.5
		h-12.3c0.1,0.6,0.3,1.1,0.6,1.6c0.3,0.5,0.7,0.9,1.2,1.3c0.5,0.4,1,0.6,1.6,0.8c0.6,0.2,1.1,0.3,1.7,0.3c0.7,0,1.4-0.1,2.1-0.4
		c0.6-0.3,1.2-0.6,1.7-1.1c0.2-0.2,0.4-0.3,0.7-0.4c0.2-0.1,0.5-0.2,0.7-0.2c0.5,0,0.9,0.2,1.2,0.5s0.5,0.7,0.5,1.2
		c0,0.2,0,0.5-0.1,0.7c-0.1,0.2-0.2,0.4-0.4,0.6c-0.8,0.9-1.7,1.5-2.8,1.9c-1.1,0.4-2.2,0.6-3.5,0.6c-1.2,0-2.4-0.2-3.5-0.7
		c-1.1-0.4-2-1.1-2.8-1.9c-0.8-0.8-1.5-1.8-1.9-2.8c-0.5-1.1-0.7-2.3-0.7-3.5c0-1.2,0.2-2.4,0.7-3.5c0.4-1.1,1.1-2,1.9-2.8
		c0.8-0.8,1.8-1.5,2.8-1.9C149,21.2,150.2,20.9,151.4,20.9z M151.4,24.4c-0.6,0-1.2,0.1-1.7,0.3c-0.6,0.2-1.1,0.5-1.5,0.8
		c-0.5,0.4-0.8,0.8-1.2,1.3c-0.3,0.5-0.5,1-0.7,1.6h10.1c-0.1-0.6-0.3-1.1-0.6-1.6c-0.7-1-1.6-1.7-2.7-2.1
		C152.6,24.5,152,24.4,151.4,24.4L151.4,24.4z M154.6,9.6c0,3.5-3.2,6.4-3.2,6.4s-3.2-2.9-3.2-6.4s3.2-6.4,3.2-6.4
		S154.6,6.1,154.6,9.6z M139.5,13.1c2.5,2.5,2.3,6.8,2.3,6.8s-4.3,0.2-6.8-2.3s-2.3-6.8-2.3-6.8S137,10.6,139.5,13.1z M163.4,13.1
		c-2.5,2.5-2.3,6.8-2.3,6.8s4.3,0.2,6.8-2.3s2.3-6.8,2.3-6.8S165.9,10.6,163.4,13.1L163.4,13.1z M171.6,26.7c3.5,0,6.4,3.2,6.4,3.2
		s-2.9,3.2-6.4,3.2s-6.4-3.2-6.4-3.2S168.1,26.7,171.6,26.7z M154.6,50.4c0-3.5-3.2-6.4-3.2-6.4s-3.2,2.9-3.2,6.4
		c0,3.5,3.2,6.4,3.2,6.4S154.6,53.9,154.6,50.4z M139.5,46.9c2.5-2.5,2.3-6.8,2.3-6.8s-4.3-0.2-6.8,2.3s-2.3,6.8-2.3,6.8
		S137,49.4,139.5,46.9z M163.4,46.9c-2.5-2.5-2.3-6.8-2.3-6.8s4.3-0.2,6.8,2.3s2.3,6.8,2.3,6.8S165.9,49.4,163.4,46.9L163.4,46.9z"
		/>
</g>
</svg>
