<?xml version="1.0" standalone="no"?>
<!DOCTYPE svg PUBLIC "-//W3C//DTD SVG 20010904//EN"
 "http://www.w3.org/TR/2001/REC-SVG-20010904/DTD/svg10.dtd">
<svg version="1.0" xmlns="http://www.w3.org/2000/svg"
 width="700.000000pt" height="700.000000pt" viewBox="0 0 700.000000 700.000000"
 preserveAspectRatio="xMidYMid meet">
<metadata>
Created by potrace 1.11, written by Peter Selinger 2001-2013
</metadata>
<g transform="translate(0.000000,700.000000) scale(0.100000,-0.100000)"
fill="#000000" stroke="none">
<path d="M3440 6553 c-139 -154 -257 -372 -287 -530 -9 -49 -10 -226 -1 -278
17 -99 73 -233 143 -346 38 -60 146 -197 183 -233 l31 -29 33 29 c111 96 254
326 308 495 84 262 10 545 -216 830 -59 74 -112 129 -124 129 -5 0 -36 -30
-70 -67z"/>
<path d="M1334 5634 c10 -172 45 -317 111 -461 144 -314 446 -477 915 -495 29
-1 31 5 29 80 -7 274 -105 541 -257 704 -148 158 -403 259 -698 275 l-107 5 7
-108z"/>
<path d="M5567 5734 c-1 -1 -29 -4 -62 -8 -154 -16 -329 -75 -453 -153 -175
-110 -287 -278 -352 -526 -16 -61 -29 -113 -29 -115 0 -1 -2 -30 -6 -65 -4
-34 -8 -90 -9 -124 -3 -70 -8 -66 84 -64 163 5 382 61 518 132 283 148 432
427 457 854 l5 76 -76 -3 c-41 -1 -76 -3 -77 -4z"/>
<path d="M3390 4554 c-14 -3 -61 -14 -105 -24 -295 -70 -543 -269 -677 -543
-85 -174 -109 -274 -109 -466 -1 -181 27 -301 106 -456 110 -216 257 -364 470
-471 153 -78 273 -106 455 -106 301 -2 531 81 700 251 82 83 93 103 96 171 5
115 -75 207 -186 214 -47 3 -140 -36 -185 -77 -79 -73 -215 -139 -320 -156
-110 -18 -275 3 -359 45 -16 7 -33 14 -38 14 -17 0 -112 68 -157 112 -24 24
-58 66 -76 93 -30 47 -75 157 -75 183 0 9 175 12 733 12 l733 0 44 23 c26 13
57 40 75 65 27 40 30 52 32 130 1 48 -2 107 -7 132 -4 25 -11 61 -14 81 -22
144 -188 404 -337 530 -119 100 -275 183 -415 220 -78 20 -322 35 -384 23z
m328 -437 c99 -35 172 -80 243 -152 63 -64 127 -178 136 -243 l5 -37 -582 1
c-319 1 -583 4 -585 6 -5 5 31 102 53 143 19 34 105 139 142 173 55 50 185
115 256 128 16 3 31 8 34 11 3 3 55 3 115 1 85 -4 127 -11 183 -31z"/>
<path d="M1050 3883 c-203 -24 -440 -146 -632 -326 l-48 -44 53 -50 c134 -126
294 -226 443 -278 92 -31 111 -35 215 -42 222 -15 463 84 694 284 43 38 80 73
82 80 5 15 -74 89 -173 164 -201 150 -449 233 -634 212z"/>
<path d="M5795 3879 c-114 -16 -199 -44 -317 -106 -120 -63 -338 -231 -338
-261 0 -19 155 -149 256 -214 96 -62 250 -127 342 -146 69 -13 263 -7 331 12
100 27 212 80 322 152 73 48 220 172 226 191 10 30 -206 199 -348 272 -168 86
-328 120 -474 100z"/>
<path d="M2348 2325 c-2 -2 -42 -6 -90 -9 -380 -27 -664 -191 -802 -464 -68
-134 -112 -309 -122 -486 l-7 -109 104 6 c57 4 115 9 129 11 13 3 42 8 63 11
130 20 314 95 417 170 202 150 341 460 349 785 2 70 0 78 -18 83 -11 2 -21 3
-23 2z"/>
<path d="M4680 2320 c-22 -5 -25 -11 -24 -50 3 -228 75 -480 182 -638 146
-214 427 -347 779 -369 l102 -6 -4 74 c-5 118 -14 177 -41 288 -82 334 -264
536 -570 636 -43 14 -91 28 -108 31 -17 2 -38 7 -46 9 -31 9 -77 15 -150 21
-41 3 -79 7 -85 8 -5 1 -21 0 -35 -4z"/>
<path d="M3441 1793 c-109 -119 -209 -283 -255 -416 -33 -97 -37 -117 -43
-225 -10 -181 47 -355 183 -557 54 -80 169 -215 184 -215 7 0 54 46 102 101
99 113 185 262 231 400 54 161 54 313 1 479 -28 86 -109 238 -172 322 -66 88
-147 178 -160 178 -6 0 -37 -30 -71 -67z"/>
</g>
</svg>
