<svg xmlns="http://www.w3.org/2000/svg" viewBox="0 0 180 60"><path d="M2 27.2c0-1.6.3-3.1.9-4.5.6-1.4 1.4-2.6 2.5-3.7 1-1.1 2.3-1.9 3.7-2.5 1.4-.6 2.9-.9 4.5-.9s3.1.3 4.5.9c1.4.6 2.6 1.4 3.7 2.5s1.9 2.3 2.5 3.7c.6 1.4.9 2.9.9 4.5s-.3 3.1-.9 4.5c-.6 1.4-1.4 2.6-2.5 3.6s-2.3 1.9-3.7 2.4c-1.4.6-2.9.9-4.5.9s-3.1-.3-4.5-.9c-1.4-.6-2.6-1.4-3.7-2.4-1-1-1.9-2.3-2.5-3.6-.6-1.4-.9-2.9-.9-4.5zm3.5 0c0 1.1.2 2.1.6 3.1.4.9 1 1.8 1.7 2.5s1.6 1.3 2.5 1.7c1 .4 2.1.6 3.2.6s2.1-.2 3.1-.6c1-.4 1.8-1 2.6-1.7.7-.7 1.3-1.6 1.7-2.5.4-1 .6-2 .6-3.1s-.2-2.1-.6-3.1c-.4-1-1-1.8-1.7-2.6-.7-.7-1.6-1.3-2.6-1.7-1-.4-2.1-.6-3.1-.6-1.1 0-2.2.2-3.2.6-1.9.8-3.5 2.4-4.3 4.3-.3.9-.5 2-.5 3.1zm25.4 9.4c0 .5-.2 1-.5 1.3-.3.3-.7.5-1.3.5-.5 0-.9-.2-1.2-.5-.3-.3-.5-.7-.5-1.3V16.4c0-.5.2-.9.5-1.3.3-.3.7-.5 1.2-.5s1 .2 1.3.5c.3.3.5.7.5 1.3v20.2zm11.2-15.7c1.2 0 2.3.2 3.4.7 1 .4 2 1.1 2.8 1.9.8.8 1.5 1.7 1.9 2.7.5 1 .7 2.1.7 3.3 0 .6-.2 1-.5 1.3-.3.3-.7.5-1.3.5H37c.1.6.3 1.1.6 1.6s.7.9 1.2 1.3 1 .6 1.6.8c.6.2 1.1.3 1.7.3.7 0 1.4-.1 2.1-.4.6-.3 1.2-.6 1.7-1.1.2-.2.4-.3.7-.4s.5-.2.7-.2c.5 0 .8.2 1.2.5.3.3.5.7.5 1.2 0 .2 0 .5-.1.7-.1.2-.2.4-.4.6-.8.9-1.7 1.5-2.8 1.9-1.1.4-2.2.6-3.5.6-1.2 0-2.4-.2-3.5-.7-1.1-.4-2-1.1-2.8-1.9-.8-.8-1.5-1.8-1.9-2.8-.5-1.1-.7-2.3-.7-3.5 0-1.2.2-2.4.7-3.5.4-1.1 1.1-2 1.9-2.8.8-.8 1.8-1.5 2.8-1.9 1-.4 2.2-.7 3.4-.7zm0 3.5c-.6 0-1.2.1-1.7.3-.6.2-1.1.5-1.5.8-.5.4-.8.8-1.2 1.3-.3.5-.5 1-.7 1.6h10.1c-.1-.6-.3-1.1-.6-1.6-.7-1-1.6-1.7-2.7-2.1-.5-.2-1.1-.3-1.7-.3zm19.5-3.5c1.2 0 2.4.2 3.5.7 1.1.5 2 1.1 2.8 1.9.8.8 1.5 1.8 1.9 2.8.5 1.1.7 2.3.7 3.5 0 1.2-.2 2.4-.7 3.5-.4 1.1-1.1 2-1.9 2.8-.8.8-1.8 1.4-2.8 1.9-1.1.5-2.3.7-3.5.7-1.2 0-2.4-.2-3.5-.7-1.1-.4-2-1.1-2.8-1.9-.8-.8-1.5-1.8-1.9-2.8-.5-1.1-.7-2.3-.7-3.5 0-1.2.2-2.4.7-3.5.4-1.1 1.1-2 1.9-2.8.8-.8 1.8-1.5 2.8-1.9 1.1-.4 2.3-.7 3.5-.7zm0 3.5c-.7 0-1.5.1-2.1.4-.6.3-1.2.7-1.7 1.2s-.9 1.1-1.1 1.7c-.3.7-.4 1.4-.4 2.1 0 .7.1 1.4.4 2.1.3.6.7 1.2 1.1 1.7.5.5 1.1.9 1.7 1.1.7.3 1.4.4 2.1.4.7 0 1.4-.1 2.1-.4.6-.3 1.2-.7 1.7-1.1 1-1 1.6-2.4 1.6-3.8 0-.7-.1-1.5-.4-2.1-.5-1.3-1.6-2.3-2.9-2.9-.7-.3-1.4-.4-2.1-.4zm16.6-8.7c.7 0 1.5.2 2.4.5.8.3 1.5.8 2 1.3.3.3.5.5.6.7s.1.5.1.7c0 .5-.1.9-.4 1.3-.3.3-.7.5-1.1.5-.3 0-.6-.1-.8-.2s-.4-.3-.7-.5c-.4-.3-.7-.6-1.1-.7-.3-.1-.7-.2-1.2-.2-.6 0-1.2.2-1.6.7s-.7 1.1-.7 1.9c0 .6.2 1.1.5 1.4.3.4.8.7 1.5 1 .7.3 1.4.6 2.2.9.8.3 1.4.6 1.9 1 .8.6 1.4 1.4 1.9 2.3.4.9.7 1.9.7 2.9 0 .9-.2 1.8-.5 2.6s-.8 1.6-1.4 2.2c-.6.6-1.4 1.2-2.3 1.5-.9.4-1.9.6-3.1.6-1 0-2-.2-2.8-.6-.8-.4-1.5-.9-2-1.4-.2-.2-.4-.5-.5-.7-.1-.2-.2-.5-.2-.7 0-.5.2-.9.5-1.2.3-.3.7-.5 1.2-.5.2 0 .4 0 .6.1.2.1.4.2.7.5.4.4.8.7 1.3.9.4.2 1 .3 1.6.3 1.1 0 1.9-.3 2.5-1 .6-.7.9-1.5.9-2.5 0-.6-.1-1.2-.4-1.6-.3-.4-.7-.8-1.4-1.2-.7-.3-1.3-.6-2-.9-.8-.3-1.5-.6-2.2-1-.7-.4-1.3-1.1-1.8-1.9-.5-.8-.8-1.8-.8-3 0-.9.2-1.7.5-2.4s.7-1.4 1.3-1.9c.6-.6 1.2-1 1.9-1.3.5-.3 1.3-.4 2.2-.4zm16.3 5.2c1.3 0 2.5.2 3.6.7 1.1.5 2.1 1.2 2.8 2.1l.3.6c.1.2.1.4.1.5 0 .5-.2.9-.5 1.3-.4.4-.8.5-1.2.5-.4 0-.8-.2-1.1-.5-.5-.5-1.1-.9-1.8-1.3-.7-.3-1.4-.5-2.1-.5-1.4 0-2.8.6-3.8 1.6-.5.5-.9 1.1-1.1 1.7-.3.7-.4 1.4-.4 2.1 0 .7.1 1.4.4 2.1.3.6.7 1.2 1.1 1.7.5.5 1.1.9 1.7 1.1.7.3 1.4.4 2.1.4.7 0 1.4-.1 2.1-.4.7-.3 1.2-.7 1.7-1.2.2-.2.4-.3.6-.4.2-.1.4-.1.6-.1.5 0 .9.2 1.3.5s.6.8.6 1.2c0 .4-.2.8-.5 1.2-.8.8-1.8 1.5-2.9 1.9-1.1.5-2.3.7-3.5.7-1.2 0-2.4-.2-3.5-.7-1.1-.4-2-1.1-2.8-1.9-.8-.8-1.5-1.8-1.9-2.8-.5-1.1-.7-2.3-.7-3.5 0-1.2.2-2.4.7-3.5.4-1.1 1.1-2 1.9-2.8.8-.8 1.8-1.5 2.8-1.9 1.1-.1 2.2-.4 3.4-.4zm17.6 0c1.2 0 2.4.2 3.5.7 1.1.5 2 1.1 2.8 1.9.8.8 1.5 1.8 1.9 2.8.5 1.1.7 2.3.7 3.5 0 1.2-.2 2.4-.7 3.5-.4 1.1-1.1 2-1.9 2.8-.8.8-1.8 1.4-2.8 1.9-1.1.5-2.2.7-3.5.7s-2.4-.2-3.5-.7c-1.1-.4-2-1.1-2.8-1.9-.8-.8-1.5-1.8-1.9-2.8-.5-1.1-.7-2.3-.7-3.5 0-1.2.2-2.4.7-3.5.4-1.1 1.1-2 1.9-2.8.8-.8 1.8-1.5 2.8-1.9 1.1-.4 2.3-.7 3.5-.7zm0 3.5c-.7 0-1.5.1-2.1.4-.6.3-1.2.7-1.7 1.2s-.9 1.1-1.1 1.7c-.3.7-.4 1.4-.4 2.1 0 .7.1 1.4.4 2.1.3.6.7 1.2 1.1 1.7.5.5 1.1.9 1.7 1.1.7.3 1.4.4 2.1.4.7 0 1.4-.1 2.1-.4.6-.3 1.2-.7 1.7-1.1 1-1 1.6-2.4 1.6-3.8 0-.7-.1-1.5-.4-2.1-.5-1.3-1.6-2.3-2.9-2.9-.7-.3-1.4-.4-2.1-.4zm14.7 19.8c0 .5-.2.9-.5 1.3s-.7.5-1.3.5c-.5 0-.9-.2-1.3-.5s-.5-.7-.5-1.3V22.8c0-.5.1-.8.4-1.1.3-.3.7-.4 1-.4.6 0 1.1.2 1.3.5.2.3.4.8.6 1.5.3-.3.6-.6 1-.9s.8-.5 1.3-.8c.5-.2.9-.4 1.4-.5.5-.1 1.1-.2 1.6-.2 1.1 0 2.3.2 3.3.7 1.1.5 2 1.1 2.9 1.9.8.8 1.5 1.7 2 2.8s.7 2.2.7 3.5-.2 2.4-.7 3.5-1.2 2-2 2.8c-.8.8-1.8 1.5-2.9 1.9-1.1.5-2.2.7-3.3.7-1.1 0-2.2-.2-3-.6-.9-.4-1.6-.9-2.1-1.6.1 0 .1 7.7.1 7.7zm5.1-9c.7 0 1.4-.1 2.1-.4.6-.3 1.2-.7 1.7-1.2s.9-1.1 1.1-1.7c.3-.7.4-1.4.4-2.1 0-.7-.1-1.4-.4-2.1-.3-.6-.7-1.2-1.1-1.7-.5-.5-1.1-.9-1.7-1.2-.7-.3-1.4-.4-2.1-.4-.7 0-1.4.1-2 .4-.6.3-1.2.7-1.6 1.2-.5.5-.8 1.1-1.1 1.7-.3.7-.4 1.4-.4 2.1 0 .7.1 1.4.4 2.1.3.6.6 1.2 1.1 1.7.5.5 1 .9 1.6 1.2.6.3 1.3.4 2 .4zm19.5-14.3c1.2 0 2.4.2 3.4.7 1 .4 2 1.1 2.8 1.9.8.8 1.5 1.7 1.9 2.7.5 1 .7 2.1.7 3.3 0 .6-.2 1-.5 1.3s-.7.5-1.3.5h-12.3c.1.6.3 1.1.6 1.6s.7.9 1.2 1.3 1 .6 1.6.8c.6.2 1.1.3 1.7.3.7 0 1.4-.1 2.1-.4.6-.3 1.2-.6 1.7-1.1.2-.2.4-.3.7-.4.2-.1.5-.2.7-.2.5 0 .9.2 1.2.5s.5.7.5 1.2c0 .2 0 .5-.1.7-.1.2-.2.4-.4.6-.8.9-1.7 1.5-2.8 1.9-1.1.4-2.2.6-3.5.6-1.2 0-2.4-.2-3.5-.7-1.1-.4-2-1.1-2.8-1.9-.8-.8-1.5-1.8-1.9-2.8-.5-1.1-.7-2.3-.7-3.5 0-1.2.2-2.4.7-3.5.4-1.1 1.1-2 1.9-2.8.8-.8 1.8-1.5 2.8-1.9 1.2-.4 2.4-.7 3.6-.7zm0 3.5c-.6 0-1.2.1-1.7.3-.6.2-1.1.5-1.5.8-.5.4-.8.8-1.2 1.3-.3.5-.5 1-.7 1.6h10.1c-.1-.6-.3-1.1-.6-1.6-.7-1-1.6-1.7-2.7-2.1-.5-.2-1.1-.3-1.7-.3zm3.2-14.8c0 3.5-3.2 6.4-3.2 6.4s-3.2-2.9-3.2-6.4 3.2-6.4 3.2-6.4 3.2 2.9 3.2 6.4zm-15.1 3.5c2.5 2.5 2.3 6.8 2.3 6.8s-4.3.2-6.8-2.3-2.3-6.8-2.3-6.8 4.3-.2 6.8 2.3zm23.9 0c-2.5 2.5-2.3 6.8-2.3 6.8s4.3.2 6.8-2.3 2.3-6.8 2.3-6.8-4.3-.2-6.8 2.3zm8.2 13.6c3.5 0 6.4 3.2 6.4 3.2s-2.9 3.2-6.4 3.2-6.4-3.2-6.4-3.2 2.9-3.2 6.4-3.2zm-17 23.7c0-3.5-3.2-6.4-3.2-6.4s-3.2 2.9-3.2 6.4c0 3.5 3.2 6.4 3.2 6.4s3.2-2.9 3.2-6.4zm-15.1-3.5c2.5-2.5 2.3-6.8 2.3-6.8s-4.3-.2-6.8 2.3-2.3 6.8-2.3 6.8 4.3.2 6.8-2.3zm23.9 0c-2.5-2.5-2.3-6.8-2.3-6.8s4.3-.2 6.8 2.3 2.3 6.8 2.3 6.8-4.3.2-6.8-2.3z" fill="#5c9314"/></svg>