<?xml version="1.0" encoding="utf-8"?>
<!-- Generator: Adobe Illustrator 23.0.4, SVG Export Plug-In . SVG Version: 6.00 Build 0)  -->
<svg version="1.1" id="Layer_1" xmlns="http://www.w3.org/2000/svg" xmlns:xlink="http://www.w3.org/1999/xlink" x="0px" y="0px"
	 viewBox="0 0 60 60" style="enable-background:new 0 0 60 60;" xml:space="preserve">
<style type="text/css">
	.st0{fill:#5C9314;}
</style>
<g id="Слой_1">
	<g>
		<path class="st0" d="M30.2,20.9c1.2,0,2.3,0.2,3.4,0.7c1.1,0.5,2,1.1,2.8,1.9c0.8,0.8,1.4,1.7,1.9,2.7c0.5,1,0.7,2.1,0.7,3.3
			c0,0.6-0.2,1-0.5,1.3c-0.3,0.3-0.7,0.5-1.3,0.5H25.1c0.1,0.6,0.3,1.1,0.6,1.6c0.3,0.5,0.7,0.9,1.2,1.3c0.5,0.4,1,0.6,1.6,0.8
			c0.6,0.2,1.1,0.3,1.7,0.3c0.7,0,1.4-0.1,2.1-0.4c0.6-0.3,1.2-0.6,1.7-1.1c0.2-0.2,0.4-0.3,0.7-0.4c0.2-0.1,0.5-0.2,0.7-0.2
			c0.5,0,0.8,0.2,1.2,0.5c0.3,0.3,0.5,0.7,0.5,1.2c0,0.2,0,0.5-0.1,0.7c-0.1,0.2-0.2,0.4-0.4,0.6c-0.8,0.9-1.7,1.5-2.8,1.9
			c-1.1,0.4-2.2,0.6-3.5,0.6c-1.2,0-2.4-0.2-3.5-0.7c-1.1-0.5-2-1.1-2.8-1.9c-0.8-0.8-1.4-1.7-1.9-2.8c-0.5-1.1-0.7-2.2-0.7-3.5
			c0-1.2,0.2-2.4,0.7-3.5c0.5-1.1,1.1-2,1.9-2.8c0.8-0.8,1.7-1.4,2.8-1.9C27.8,21.2,28.9,20.9,30.2,20.9z M30.2,24.4
			c-0.6,0-1.2,0.1-1.7,0.3c-0.6,0.2-1.1,0.5-1.5,0.8c-0.5,0.4-0.8,0.8-1.2,1.3c-0.3,0.5-0.5,1-0.7,1.6h10.1
			c-0.1-0.6-0.3-1.1-0.6-1.6c-0.3-0.5-0.7-0.9-1.2-1.3c-0.5-0.4-1-0.6-1.5-0.8C31.3,24.5,30.7,24.4,30.2,24.4z"/>
		<g>
			<path class="st0" d="M33.3,9.6c0,3.5-3.2,6.4-3.2,6.4s-3.2-2.9-3.2-6.4s3.2-6.4,3.2-6.4S33.3,6.1,33.3,9.6z"/>
			<path class="st0" d="M18.2,13.1c2.5,2.5,2.3,6.8,2.3,6.8s-4.3,0.2-6.8-2.3s-2.3-6.8-2.3-6.8S15.8,10.6,18.2,13.1z"/>
			<path class="st0" d="M42.2,13.1c-2.5,2.5-2.3,6.8-2.3,6.8s4.3,0.2,6.8-2.3s2.3-6.8,2.3-6.8S44.7,10.6,42.2,13.1z"/>
			<path class="st0" d="M50.4,26.7c3.5,0,6.4,3.2,6.4,3.2s-2.9,3.2-6.4,3.2c-3.5,0-6.4-3.2-6.4-3.2S46.9,26.7,50.4,26.7z"/>
			<path class="st0" d="M33.3,50.4c0-3.5-3.2-6.4-3.2-6.4s-3.2,2.9-3.2,6.4c0,3.5,3.2,6.4,3.2,6.4S33.3,53.9,33.3,50.4z"/>
			<path class="st0" d="M18.2,46.9c2.5-2.5,2.3-6.8,2.3-6.8s-4.3-0.2-6.8,2.3s-2.3,6.8-2.3,6.8S15.8,49.4,18.2,46.9z"/>
			<path class="st0" d="M42.2,46.9c-2.5-2.5-2.3-6.8-2.3-6.8s4.3-0.2,6.8,2.3s2.3,6.8,2.3,6.8S44.7,49.4,42.2,46.9z"/>
			<path class="st0" d="M9.6,26.7c3.5,0,6.4,3.2,6.4,3.2s-2.9,3.2-6.4,3.2c-3.5,0-6.4-3.2-6.4-3.2S6.1,26.7,9.6,26.7z"/>
		</g>
	</g>
</g>
<g id="Слой_2">
</g>
</svg>
