<svg id="Capa_1" data-name="Capa 1" xmlns="http://www.w3.org/2000/svg" width="32" height="32" viewBox="0 0 32 32">
  <defs>
    <style>
      .cls-1 {
        fill: #75af26;
      }
    </style>
  </defs>
  <title>usd</title>
  <path class="cls-1" d="M16,0A16,16,0,1,0,32,16,16,16,0,0,0,16,0Zm4.36,22.17A5.07,5.07,0,0,1,17,23.73V26H15.06V23.75c-2.49-.26-4-1.69-4.61-4.32l2.93-.76a2.54,2.54,0,0,0,2.69,2.47,2.07,2.07,0,0,0,1.58-.53,1.77,1.77,0,0,0,.51-1.28,1.38,1.38,0,0,0-.51-1.17,9,9,0,0,0-2.24-1A13.46,13.46,0,0,1,13,16.07a4,4,0,0,1-1.42-1.48A4.36,4.36,0,0,1,11,12.36a4.89,4.89,0,0,1,1-3,4.37,4.37,0,0,1,3.08-1.63V6h1.89V7.75a4.6,4.6,0,0,1,4.12,3.59l-2.62,1.07c-.51-1.47-1.29-2.2-2.36-2.2a1.73,1.73,0,0,0-1.29.5,1.62,1.62,0,0,0-.48,1.19,1.34,1.34,0,0,0,.46,1.1,7.94,7.94,0,0,0,2,.94,17.48,17.48,0,0,1,2.64,1.17A4.21,4.21,0,0,1,21,16.62a4.34,4.34,0,0,1,.57,2.26A4.67,4.67,0,0,1,20.36,22.17Z"/>
</svg>
