<svg xmlns="http://www.w3.org/2000/svg" width="32" height="32" viewBox="0 0 32 32">
  <defs>
    <style>
      .cls-1 {
        fill: #ccc;
      }
    </style>
  </defs>
  <title>xrp</title>
  <circle class="cls-1" cx="16" cy="16" r="16"/>
  <path d="M4.52,6.67H7.91c1.19,1.21,2.41,2.39,3.61,3.59.52.49,1,1,1.52,1.5a4.14,4.14,0,0,0,4.63.92,4.23,4.23,0,0,0,1.25-.84c.24-.26.5-.5.74-.75s.53-.54.82-.8.77-.79,1.17-1.16c.81-.82,1.64-1.62,2.45-2.44l0,0h3.37c-.4.4-.79.8-1.19,1.18-1,1-2,1.94-2.93,2.91-.46.43-.89.9-1.35,1.33l-1.56,1.55a6.42,6.42,0,0,1-1.71,1.15,6.63,6.63,0,0,1-6.18-.35,7,7,0,0,1-1.39-1.15c-.46-.45-.9-.92-1.37-1.35s-.67-.68-1-1-.75-.76-1.14-1.12C6.63,8.76,5.57,7.72,4.52,6.67Z"/>
  <path d="M14.74,17.11A9.94,9.94,0,0,1,15.82,17a3.08,3.08,0,0,1,.61,0,6.42,6.42,0,0,1,4.17,1.86c.36.36.73.71,1.08,1.07s.7.67,1,1,.76.75,1.14,1.12c.86.87,1.73,1.72,2.59,2.59.4.37.79.77,1.18,1.16H24.25c-.86-.84-1.72-1.69-2.57-2.55-.47-.42-.88-.89-1.34-1.31l-1.1-1.09a4.8,4.8,0,0,0-1-.86,4.13,4.13,0,0,0-5,.46L11.69,22c-.46.42-.87.89-1.34,1.31-.85.86-1.7,1.71-2.57,2.56H4.4c.26-.28.54-.54.8-.81.54-.5,1-1,1.57-1.54,1.37-1.38,2.76-2.74,4.14-4.11.27-.26.53-.54.81-.79A6.59,6.59,0,0,1,14.74,17.11Z"/>
</svg>
